<svg width="101" height="101" viewBox="0 0 101 101" fill="none" xmlns="http://www.w3.org/2000/svg">
<circle cx="50.5" cy="50.5" r="50.5" fill="black"/>
<path d="M48.344 58.008C48.32 57.672 48.296 57.324 48.272 56.964C48.272 56.604 48.272 56.304 48.272 56.064C48.272 54.408 48.536 53.112 49.064 52.176C49.592 51.216 50.468 50.316 51.692 49.476C52.532 48.876 53.3 48.24 53.996 47.568C54.692 46.872 55.04 46.044 55.04 45.084C55.04 44.244 54.776 43.524 54.248 42.924C53.744 42.3 53.084 41.82 52.268 41.484C51.476 41.148 50.636 40.98 49.748 40.98C48.428 40.98 47.144 41.316 45.896 41.988C44.672 42.66 43.736 43.62 43.088 44.868L40.424 43.5C40.736 42.348 41.324 41.304 42.188 40.368C43.076 39.408 44.192 38.652 45.536 38.1C46.88 37.524 48.404 37.236 50.108 37.236C52.196 37.236 54.008 37.572 55.544 38.244C57.104 38.916 58.304 39.828 59.144 40.98C60.008 42.132 60.44 43.428 60.44 44.868C60.44 46.428 59.996 47.772 59.108 48.9C58.22 50.004 57.116 51 55.796 51.888C55.148 52.32 54.476 52.728 53.78 53.112C53.084 53.496 52.496 53.928 52.016 54.408C51.56 54.888 51.332 55.512 51.332 56.28V56.388C51.332 56.604 51.332 56.868 51.332 57.18C51.332 57.468 51.344 57.744 51.368 58.008H48.344ZM53.024 63.48C53.024 64.32 52.724 65.028 52.124 65.604C51.548 66.18 50.84 66.468 50 66.468C49.16 66.468 48.44 66.18 47.84 65.604C47.264 65.028 46.976 64.32 46.976 63.48C46.976 62.64 47.264 61.932 47.84 61.356C48.44 60.756 49.16 60.456 50 60.456C50.84 60.456 51.548 60.756 52.124 61.356C52.724 61.932 53.024 62.64 53.024 63.48Z" fill="white"/>
</svg>
