<svg width="28" height="28" viewBox="0 0 28 28" fill="none" xmlns="http://www.w3.org/2000/svg">
<path d="M14.3009 11.5635C15.1539 11.5635 15.7223 11.8329 16.2081 12.3252C16.6952 12.8188 17.1004 13.5368 17.6241 14.4355C18.006 15.0874 18.59 15.4503 19.2042 15.832C19.9113 16.2712 20.6374 16.7228 20.9493 17.6123L20.9503 17.6133C21.0731 17.9333 21.1349 18.2734 21.1339 18.6162C21.1339 20.0622 20.0022 21.2373 18.713 21.2373C18.0657 21.2373 17.3263 21.0759 16.5665 20.9141C15.8075 20.7524 15.0284 20.5908 14.3048 20.5908C13.5813 20.5908 12.7962 20.7524 12.0333 20.9141C11.2696 21.0759 10.5281 21.2373 9.88879 21.2373C8.61564 21.2372 7.46399 20.062 7.46399 18.6162C7.46172 18.2734 7.52279 17.9327 7.64465 17.6123C7.95763 16.7244 8.68361 16.2746 9.39075 15.835C10.0058 15.4524 10.5925 15.0882 10.9747 14.4346C11.4996 13.5363 11.9049 12.8188 12.3927 12.3252C12.8793 11.8329 13.4481 11.5636 14.3009 11.5635Z" fill="#5DCAA5" stroke="#5DCAA5" stroke-width="0.03125"/>
<path d="M7.73315 9.85107C8.82464 9.85107 9.71558 10.9907 9.71558 12.4048C9.71545 13.8187 8.82457 14.9575 7.73315 14.9575C6.64179 14.9575 5.75086 13.8187 5.75073 12.4048C5.75073 10.9907 6.64171 9.85114 7.73315 9.85107Z" fill="#5DCAA5" stroke="#5DCAA5" stroke-width="0.03125"/>
<path d="M11.7302 6.42529C12.8217 6.42529 13.7126 7.56491 13.7126 8.979C13.7125 10.393 12.8216 11.5317 11.7302 11.5317C10.6389 11.5317 9.74793 10.3929 9.7478 8.979C9.7478 7.56495 10.6388 6.42536 11.7302 6.42529Z" fill="#5DCAA5" stroke="#5DCAA5" stroke-width="0.03125"/>
<path d="M16.8682 6.42529C17.9597 6.42529 18.8506 7.56491 18.8506 8.979C18.8505 10.393 17.9596 11.5317 16.8682 11.5317C15.7769 11.5317 14.8859 10.3929 14.8858 8.979C14.8858 7.56495 15.7768 6.42536 16.8682 6.42529Z" fill="#5DCAA5" stroke="#5DCAA5" stroke-width="0.03125"/>
<path d="M20.8644 9.85059C21.9559 9.85059 22.8468 10.9902 22.8468 12.4043C22.8467 13.8183 21.9558 14.957 20.8644 14.957C19.773 14.957 18.8821 13.8182 18.882 12.4043C18.882 10.9902 19.7729 9.85065 20.8644 9.85059Z" fill="#5DCAA5" stroke="#5DCAA5" stroke-width="0.03125"/>
<circle cx="14" cy="14" r="12.5" stroke="#5DCAA5" stroke-width="3"/>
</svg>
