<svg width="25" height="27" viewBox="0 0 25 27" fill="none" xmlns="http://www.w3.org/2000/svg">
<path d="M17.7632 18.5441V12.2727H23.3816C22.983 10.6549 22.2006 9.14095 21.0921 7.84227L22.9605 6.09955C22.3684 5.47364 21.7763 4.90909 21.1053 4.36909L19.2368 6.13636C17.1974 4.59 14.6316 3.68182 11.8421 3.68182C8.70138 3.68182 5.6893 4.84553 3.46847 6.91696C1.24765 8.98838 0 11.7978 0 14.7273C0 17.6567 1.24765 20.4662 3.46847 22.5376C5.6893 24.609 8.70138 25.7727 11.8421 25.7727C12.3947 25.7727 12.9342 25.7236 13.4737 25.6623C13.2763 25.11 13.1579 24.5455 13.1579 23.9318C13.1579 21.3055 15.1316 19.1086 17.7632 18.5441ZM13.1579 15.9545H10.5263V7.36364H13.1579V15.9545ZM15.7895 2.45455H7.89474V0H15.7895V2.45455ZM25 14.7273V17.1818H22.3684V23.9318C22.3684 24.7456 22.0219 25.526 21.405 26.1014C20.7881 26.6767 19.9514 27 19.0789 27C18.2065 27 17.3698 26.6767 16.7529 26.1014C16.136 25.526 15.7895 24.7456 15.7895 23.9318C15.7898 23.4225 15.926 22.9213 16.1858 22.4733C16.4457 22.0254 16.821 21.6448 17.2779 21.3659C17.7349 21.0871 18.259 20.9187 18.8032 20.876C19.3473 20.8333 19.8943 20.9176 20.3947 21.1214V14.7273H25Z" fill="white"/>
</svg>
