<svg width="21" height="19" viewBox="0 0 21 19" fill="none" xmlns="http://www.w3.org/2000/svg">
<path d="M5.21892 2.29781C5.3229 2.19492 5.40443 2.0716 5.45837 1.93564C5.51231 1.79967 5.5375 1.654 5.53234 1.50781C5.52718 1.36163 5.49179 1.2181 5.4284 1.08627C5.36501 0.954439 5.27499 0.837175 5.16402 0.741868C4.60559 0.265279 3.89612 0.00238166 3.16197 0L3.00024 0.00445103H2.9765C1.30235 0.106334 -0.00333311 1.5604 0.000128939 3.31368C0.000128939 4.25338 0.395792 4.75092 0.708366 5.14906C0.796055 5.26039 0.906007 5.3522 1.03119 5.41862C1.15638 5.48505 1.29405 5.52463 1.4354 5.53483C1.44826 5.53483 1.47002 5.5373 1.53431 5.5373C1.66145 5.53712 1.78724 5.51121 1.90411 5.46115C2.02097 5.41109 2.12651 5.3379 2.21436 5.246L5.21892 2.29781ZM17.5933 0.0054404L17.4316 0.000494684H17.4058C16.671 0.00240792 15.9608 0.265334 15.4018 0.742363C15.291 0.837663 15.2011 0.954871 15.1378 1.08661C15.0745 1.21835 15.0392 1.36176 15.034 1.50782C15.0289 1.65389 15.054 1.79944 15.1079 1.93531C15.1617 2.07118 15.2431 2.19444 15.3469 2.29732L18.3525 5.24748C18.4405 5.33972 18.5463 5.41313 18.6636 5.46329C18.7808 5.51345 18.907 5.5393 19.0345 5.53928C19.0978 5.53928 19.1196 5.53928 19.1334 5.53681C19.2747 5.52654 19.4122 5.48693 19.5373 5.42051C19.6624 5.35408 19.7723 5.26231 19.8599 5.15104C20.1745 4.7529 20.5662 4.25684 20.5682 3.31566C20.5711 1.5604 19.2655 0.106334 17.5933 0.0054404Z" fill="white"/>
<path d="M10.2892 1.58276C5.49176 1.58276 1.58459 5.48746 1.58459 10.2873C1.58289 12.3224 2.29742 14.2932 3.60296 15.8543L1.81655 17.6412C1.74132 17.7143 1.68137 17.8017 1.64019 17.8981C1.59901 17.9946 1.57742 18.0983 1.57668 18.2032C1.57594 18.3081 1.59605 18.4121 1.63586 18.5091C1.67567 18.6061 1.73437 18.6943 1.80856 18.7685C1.88274 18.8426 1.97093 18.9013 2.06799 18.941C2.16506 18.9808 2.26906 19.0009 2.37394 19.0001C2.47883 18.9993 2.58252 18.9777 2.67897 18.9364C2.77542 18.8952 2.86272 18.8352 2.93578 18.76L4.7222 16.9736C6.28416 18.2776 8.25438 18.992 10.2892 18.992C12.324 18.992 14.2942 18.2776 15.8562 16.9736L17.6431 18.76C17.7161 18.8352 17.8034 18.8952 17.8999 18.9364C17.9963 18.9777 18.1 18.9993 18.2049 19.0001C18.3098 19.0009 18.4138 18.9808 18.5108 18.941C18.6079 18.9013 18.6961 18.8426 18.7703 18.7685C18.8445 18.6943 18.9032 18.6061 18.943 18.5091C18.9828 18.4121 19.0029 18.3081 19.0022 18.2032C19.0014 18.0983 18.9798 17.9946 18.9386 17.8981C18.8975 17.8017 18.8375 17.7143 18.7623 17.6412L16.9754 15.8543C18.2812 14.2933 18.9957 12.3225 18.9938 10.2873C18.9938 5.48994 15.0891 1.58276 10.2892 1.58276ZM11.0805 10.2873C11.0805 10.4972 10.9971 10.6985 10.8487 10.8469C10.7003 10.9953 10.499 11.0787 10.2892 11.0787H6.33254C6.12267 11.0787 5.92139 10.9953 5.77299 10.8469C5.62459 10.6985 5.54122 10.4972 5.54122 10.2873C5.54122 10.0775 5.62459 9.8762 5.77299 9.7278C5.92139 9.57939 6.12267 9.49602 6.33254 9.49602H9.49785V4.74807C9.49785 4.53819 9.58122 4.33692 9.72962 4.18852C9.87802 4.04011 10.0793 3.95674 10.2892 3.95674C10.499 3.95674 10.7003 4.04011 10.8487 4.18852C10.9971 4.33692 11.0805 4.53819 11.0805 4.74807V10.2873Z" fill="white"/>
</svg>
