<svg width="13" height="21" viewBox="0 0 13 21" fill="none" xmlns="http://www.w3.org/2000/svg">
<path fill-rule="evenodd" clip-rule="evenodd" d="M11.6402 8.61133C12.0382 9.00976 12.2617 9.54987 12.2617 10.113C12.2617 10.6761 12.0382 11.2162 11.6402 11.6147L3.62756 19.6302C3.22891 20.0286 2.68831 20.2524 2.12468 20.2523C1.56105 20.2521 1.02055 20.0281 0.622097 19.6295C0.223643 19.2308 -0.000132779 18.6902 5.91081e-08 18.1266C0.000132897 17.5629 0.224163 17.0224 0.622805 16.624L7.13381 10.113L0.622805 3.60199C0.235526 3.2014 0.0210818 2.66472 0.025659 2.10754C0.0302362 1.55037 0.253468 1.01729 0.647277 0.623106C1.04108 0.228927 1.57396 0.00519179 2.13113 8.92214e-05C2.68829 -0.00501335 3.22518 0.208925 3.62614 0.595826L11.6416 8.60991L11.6402 8.61133Z" fill="#4AA284"/>
</svg>
