<svg width="32" height="32" viewBox="0 0 32 32" fill="none" xmlns="http://www.w3.org/2000/svg">
<path d="M18.5143 13.4862L19.3677 14.3502L20.1926 15.2124L21.0104 16.0871C27.1584 22.7787 30.739 28.9193 29.2012 30.4571C28.49 31.1682 26.7904 30.7842 24.5075 29.5557C21.6954 31.3176 18.4054 32.1627 15.0923 31.9741C11.7791 31.7856 8.60622 30.5728 6.01212 28.5033L11.3102 23.2054C12.0547 23.4045 12.8437 23.3564 13.5584 23.0683C14.2732 22.7802 14.875 22.2677 15.2732 21.608C15.6714 20.9483 15.8446 20.177 15.7665 19.4104C15.6884 18.6438 15.3634 17.9233 14.8404 17.3574C14.3174 16.7914 13.6246 16.4107 12.8665 16.2726C12.1084 16.1344 11.3258 16.2463 10.6368 16.5914C9.94775 16.9364 9.38945 17.496 9.04596 18.1858C8.70248 18.8756 8.5924 19.6583 8.7323 20.4161L8.79453 20.6916L3.49818 25.9894C1.42777 23.3952 0.214421 20.2218 0.0258726 16.9081C-0.162676 13.5943 0.682886 10.3038 2.44567 7.49148C1.21537 5.21057 0.831346 3.51277 1.5425 2.79987C3.2795 1.06474 10.8764 5.84879 18.5143 13.4844M29.8288 2.17053C30.1824 2.52415 30.4574 2.94837 30.6359 3.4155C30.8144 3.88263 30.8924 4.38216 30.8647 4.88146C30.837 5.38076 30.7043 5.86861 30.4753 6.31314C30.2462 6.75768 29.926 7.1489 29.5354 7.46126C30.938 9.68954 31.7703 12.2289 31.9588 14.8551C32.1474 17.4812 31.6863 20.1134 30.6164 22.5192C28.5025 19.0454 25.1582 15.1004 21.0282 10.9706L20.0735 10.0248C16.2901 6.33058 12.6846 3.33321 9.48079 1.38475C11.8868 0.314308 14.5194 -0.147192 17.146 0.0410141C19.7727 0.22922 22.3125 1.06134 24.5413 2.46387C24.6195 2.36194 24.7061 2.26417 24.8009 2.17053C25.4677 1.50396 26.372 1.1295 27.3148 1.1295C28.2577 1.1295 29.162 1.50396 29.8288 2.17053Z" fill="#F1DCC3"/>
</svg>
