<svg width="35" height="35" viewBox="0 0 35 35" fill="none" xmlns="http://www.w3.org/2000/svg">
<path d="M35 17.4981C35 7.8339 27.1653 0 17.5 0C7.83476 0 1.59114e-05 7.8339 1.59114e-05 17.4981C-0.00381447 20.3329 0.683982 23.1258 2.00376 25.6347L0.050766 33.1397C-0.0141894 33.3904 -0.0125473 33.6537 0.0555299 33.9036C0.123607 34.1535 0.25576 34.3812 0.43891 34.5644C0.622061 34.7475 0.849861 34.8796 1.09977 34.9477C1.34968 35.0158 1.61303 35.0174 1.86377 34.9525L9.37126 32.9979C11.8783 34.3144 14.6683 35.0002 17.5 34.9962C27.1653 34.9962 35 27.1623 35 17.4981ZM17.5 7.87765C17.8481 7.87765 18.1819 8.01591 18.4281 8.26203C18.6742 8.50814 18.8125 8.84195 18.8125 9.19001V20.1263C18.8125 20.4744 18.6742 20.8082 18.4281 21.0543C18.1819 21.3004 17.8481 21.4387 17.5 21.4387C17.1519 21.4387 16.8181 21.3004 16.5719 21.0543C16.3258 20.8082 16.1875 20.4744 16.1875 20.1263V9.19001C16.1875 8.84195 16.3258 8.50814 16.5719 8.26203C16.8181 8.01591 17.1519 7.87765 17.5 7.87765ZM19.25 25.3705C19.25 25.8346 19.0656 26.2797 18.7374 26.6078C18.4093 26.936 17.9641 27.1203 17.5 27.1203C17.0359 27.1203 16.5908 26.936 16.2626 26.6078C15.9344 26.2797 15.75 25.8346 15.75 25.3705C15.75 24.9064 15.9344 24.4614 16.2626 24.1332C16.5908 23.805 17.0359 23.6207 17.5 23.6207C17.9641 23.6207 18.4093 23.805 18.7374 24.1332C19.0656 24.4614 19.25 24.9064 19.25 25.3705Z" fill="#DA5B5B"/>
</svg>
