<svg width="27" height="37" viewBox="0 0 27 37" fill="none" xmlns="http://www.w3.org/2000/svg">
<path d="M23.3994 20.5094V17.0042C23.4006 14.6351 22.6105 12.3349 21.1567 10.4754C19.703 8.61592 17.6705 7.30593 15.3881 6.75727C15.4052 6.68925 15.4188 6.62035 15.4286 6.55086V1.94734C15.4286 1.43087 15.2254 0.935561 14.8637 0.570363C14.502 0.205166 14.0115 0 13.5 0C12.9885 0 12.498 0.205166 12.1363 0.570363C11.7746 0.935561 11.5714 1.43087 11.5714 1.94734V6.55086C11.5812 6.62035 11.5948 6.68925 11.6119 6.75727C9.32949 7.30593 7.29705 8.61592 5.84326 10.4754C4.38948 12.3349 3.59935 14.6351 3.60064 17.0042V20.5094C3.60064 25.1557 0 26.3164 0 28.6395C0 29.7943 2.29904e-07 30.9627 1.03757 30.9627H25.9624C27 30.9627 27 29.7943 27 28.6395C27 26.3164 23.3994 25.1557 23.3994 20.5094ZM7.37293 32.9101C7.88454 34.1233 8.73814 35.1579 9.82755 35.8851C10.9169 36.6123 12.1941 37 13.5 37C14.8059 37 16.0831 36.6123 17.1725 35.8851C18.2619 35.1579 19.1155 34.1233 19.6271 32.9101H7.37293Z" fill="#F1DCC3"/>
</svg>
