<svg width="34" height="34" viewBox="0 0 34 34" fill="none" xmlns="http://www.w3.org/2000/svg">
<path d="M17 0C26.3796 0 33.9999 7.5302 34 16.8398V33C34 33.5523 33.5523 34 33 34H1C0.447715 34 0 33.5523 0 33V16.8398C8.48328e-05 7.5302 7.62045 0 17 0ZM17.5996 7C11.7457 7.00021 7.00021 11.7457 7 17.5996C7 23.4537 11.7456 28.2 17.5996 28.2002C23.4538 28.2002 28.2002 23.4538 28.2002 17.5996C28.2 11.7456 23.4537 7 17.5996 7ZM17.5996 9C22.3491 9 26.2 12.8501 26.2002 17.5996C26.2002 22.3493 22.3493 26.2002 17.5996 26.2002C12.8501 26.2 9 22.3491 9 17.5996C9.00021 12.8503 12.8503 9.00021 17.5996 9ZM17 12.2002C16.4477 12.2002 16 12.6479 16 13.2002V18C16.0001 18.2651 16.1056 18.5196 16.293 18.707L19.4932 21.9072C19.8837 22.2975 20.5168 22.2976 20.9072 21.9072C21.2976 21.5168 21.2975 20.8837 20.9072 20.4932L18 17.5859V13.2002C18 12.6479 17.5523 12.2002 17 12.2002Z" fill="#F1DCC3"/>
</svg>
