<svg width="15" height="9" viewBox="0 0 15 9" fill="none" xmlns="http://www.w3.org/2000/svg">
<path fill-rule="evenodd" clip-rule="evenodd" d="M8.62195 8.54385C8.32684 8.83594 7.92681 9 7.50973 9C7.09264 9 6.69261 8.83594 6.39751 8.54385L0.460761 2.6626C0.165643 2.37 -9.72748e-05 1.9732 9.53674e-07 1.5595C9.91821e-05 1.1458 0.166028 0.749079 0.461286 0.456615C0.756544 0.164152 1.15694 -9.74591e-05 1.5744 4.3385e-08C1.99186 9.75458e-05 2.39218 0.164534 2.6873 0.457135L7.50973 5.23617L12.3322 0.457135C12.6289 0.172875 13.0264 0.0154739 13.439 0.0188335C13.8517 0.0221932 14.2465 0.186044 14.5385 0.475097C14.8304 0.76415 14.9962 1.15528 14.9999 1.56423C15.0037 1.97319 14.8453 2.36726 14.5587 2.66156L8.623 8.54489L8.62195 8.54385Z" fill="white"/>
</svg>
