<svg width="25" height="33" viewBox="0 0 25 33" fill="none" xmlns="http://www.w3.org/2000/svg">
<path d="M22.6249 15.0338C22.2142 14.4837 21.7143 14.0071 21.2501 13.5304C20.0539 12.4304 18.697 11.642 17.5544 10.487C14.8942 7.81022 14.305 3.39176 16.0011 0C14.305 0.421679 12.8231 1.37504 11.5555 2.42007C6.93133 6.23351 5.11024 12.962 7.28841 18.7372C7.35982 18.9205 7.43124 19.1039 7.43124 19.3422C7.43124 19.7456 7.16343 20.1122 6.80636 20.2589C6.39572 20.4422 5.96722 20.3322 5.628 20.0389C5.52667 19.9517 5.44192 19.8461 5.37805 19.7272C3.36056 17.1055 3.03919 13.347 4.39608 10.3403C1.41448 12.8337 -0.210217 17.0505 0.021883 21.0289C0.129006 21.9456 0.236129 22.8623 0.539645 23.779C0.7896 24.879 1.27165 25.9791 1.80727 26.9508C3.73549 30.1225 7.07416 32.3959 10.6628 32.8543C14.4835 33.3493 18.5721 32.6343 21.5001 29.9209C24.7674 26.8774 25.91 22.0006 24.2317 17.8205L23.9996 17.3438C23.6247 16.5005 22.6249 15.0338 22.6249 15.0338ZM16.9831 26.5841C16.4832 27.0241 15.6619 27.5008 15.0191 27.6841C13.0195 28.4175 11.0199 27.3908 9.84151 26.1807C11.9661 25.6674 13.2337 24.054 13.6087 22.4223C13.9122 20.9556 13.3409 19.7456 13.1088 18.3339C12.8945 16.9771 12.9302 15.8221 13.4123 14.5571C13.7515 15.2538 14.1086 15.9505 14.5371 16.5005C15.9118 18.3339 18.0721 19.1405 18.5364 21.634C18.6078 21.8906 18.6435 22.1473 18.6435 22.4223C18.697 23.9257 18.0543 25.5757 16.9831 26.5841Z" fill="#DA5B5B"/>
</svg>
