<svg width="30" height="31" viewBox="0 0 30 31" fill="none" xmlns="http://www.w3.org/2000/svg">
<path d="M0 27.4571V11.5143C0 10.9533 0.133125 10.4219 0.399375 9.92C0.665625 9.41809 1.0325 9.00476 1.5 8.68L12.75 0.708571C13.4062 0.236191 14.1562 0 15 0C15.8437 0 16.5937 0.236191 17.25 0.708571L28.5 8.68C28.9687 9.00476 29.3362 9.41809 29.6025 9.92C29.8687 10.4219 30.0012 10.9533 30 11.5143V27.4571C30 28.4314 29.6325 29.2658 28.8975 29.9602C28.1625 30.6546 27.28 31.0012 26.25 31H20.625C20.0937 31 19.6487 30.8299 19.29 30.4898C18.9312 30.1497 18.7512 29.7293 18.75 29.2286V20.3714C18.75 19.8695 18.57 19.4491 18.21 19.1102C17.85 18.7712 17.405 18.6012 16.875 18.6H13.125C12.5937 18.6 12.1487 18.7701 11.79 19.1102C11.4312 19.4503 11.2512 19.8707 11.25 20.3714V29.2286C11.25 29.7305 11.07 30.1515 10.71 30.4916C10.35 30.8317 9.905 31.0012 9.375 31H3.75C2.71875 31 1.83625 30.6534 1.1025 29.9602C0.36875 29.2669 0.00125 28.4326 0 27.4571Z" fill="#B7B7B7"/>
</svg>
