<svg width="14" height="24" viewBox="0 0 14 24" fill="none" xmlns="http://www.w3.org/2000/svg">
<path fill-rule="evenodd" clip-rule="evenodd" d="M0.707947 13.7597C0.254626 13.2887 0 12.6503 0 11.9847C0 11.3191 0.254626 10.6807 0.707947 10.2097L9.83567 0.735323C10.2898 0.264346 10.9056 -0.000156946 11.5477 6.98664e-08C11.8656 7.78162e-05 12.1804 0.0651288 12.4741 0.191439C12.7678 0.31775 13.0346 0.502846 13.2594 0.73616C13.4841 0.969473 13.6624 1.24644 13.784 1.55123C13.9056 1.85603 13.9681 2.18269 13.968 2.51257C13.968 2.84245 13.9053 3.16908 13.7835 3.47382C13.6618 3.77856 13.4834 4.05543 13.2586 4.28863L5.8431 11.9847L13.2602 19.6807C13.4915 19.9123 13.676 20.1894 13.803 20.4958C13.93 20.8022 13.997 21.1317 13.9999 21.4652C14.0028 21.7987 13.9417 22.1295 13.8202 22.4383C13.6986 22.747 13.519 23.0275 13.2918 23.2635C13.0646 23.4994 12.7944 23.6861 12.497 23.8125C12.1995 23.9389 11.8808 24.0027 11.5594 23.9999C11.238 23.9972 10.9203 23.928 10.6249 23.7966C10.3295 23.6651 10.0623 23.4738 9.83889 23.2341L0.70472 13.7597H0.707947Z" fill="white"/>
</svg>
