<svg width="73" height="78" viewBox="0 0 73 78" fill="none" xmlns="http://www.w3.org/2000/svg">
<path d="M44.3418 29.9813V42.3668C44.3418 42.6867 44.1137 42.9305 43.8143 42.9305H41.9607C41.7754 42.9305 41.6185 42.8238 41.533 42.702L36.2148 35.0391V42.382C36.2148 42.702 35.9867 42.9457 35.6873 42.9457H33.8338C33.5344 42.9457 33.3063 42.702 33.3063 42.382V29.9965C33.3063 29.6766 33.5344 29.4328 33.8338 29.4328H35.673C35.8299 29.4328 36.0152 29.5242 36.1008 29.6766L41.4189 37.3395V29.9965C41.4189 29.6766 41.6471 29.4328 41.9465 29.4328H43.8C44.0994 29.4176 44.3418 29.6766 44.3418 29.966V29.9813ZM30.9822 29.4176H29.1287C28.8293 29.4176 28.6012 29.6613 28.6012 29.9813V42.3668C28.6012 42.6867 28.8293 42.9305 29.1287 42.9305H30.9822C31.2816 42.9305 31.5098 42.6867 31.5098 42.3668V29.9813C31.5098 29.6918 31.2816 29.4176 30.9822 29.4176ZM26.5053 39.7922H21.4295V29.9813C21.4295 29.6613 21.2014 29.4176 20.902 29.4176H19.0485C18.749 29.4176 18.5209 29.6613 18.5209 29.9813V42.3668C18.5209 42.5191 18.5637 42.641 18.6635 42.7477C18.7633 42.8391 18.8774 42.9 19.0199 42.9H26.4625C26.7619 42.9 26.99 42.6562 26.99 42.3363V40.3559C26.99 40.0664 26.7619 39.7922 26.491 39.7922H26.5053ZM54.1226 29.4176H46.6658C46.3949 29.4176 46.1383 29.6613 46.1383 29.9813V42.3668C46.1383 42.6562 46.3664 42.9305 46.6658 42.9305H54.1084C54.4078 42.9305 54.6359 42.6867 54.6359 42.3668V40.3711C54.6359 40.0512 54.4078 39.8074 54.1084 39.8074H49.0469V37.7355H54.1084C54.4078 37.7355 54.6359 37.4918 54.6359 37.1719V35.1762C54.6359 34.8563 54.4078 34.6125 54.1084 34.6125H49.0469V32.5254H54.1084C54.4078 32.5254 54.6359 32.2816 54.6359 31.9617V29.9813C54.6217 29.6918 54.3935 29.4176 54.1084 29.4176H54.1226ZM73 14.2289V63.893C72.9857 71.6929 66.9974 78.0152 59.6832 78H13.2028C5.90276 77.9847 -0.0142321 71.5711 2.57131e-05 63.7711V14.107C0.0142835 6.30705 6.01682 -0.0152069 13.3168 2.74742e-05H59.7972C67.0972 0.0152618 73.0142 6.4137 73 14.2289ZM62.9625 35.5723C62.9625 22.8668 51.0287 12.5227 36.3859 12.5227C21.7432 12.5227 9.80939 22.8668 9.80939 35.5723C9.80939 46.9523 19.2623 56.5043 32.0373 58.3172C35.1455 59.0332 34.7891 60.2519 34.0904 64.7308C33.9764 65.4469 33.5486 67.534 36.3859 66.2695C39.2232 65.0051 51.6846 56.6414 57.2736 49.7859C61.1232 45.2613 62.9625 40.6758 62.9625 35.6027V35.5723Z" fill="#43D668"/>
</svg>
