<svg width="24" height="31" viewBox="0 0 24 31" fill="none" xmlns="http://www.w3.org/2000/svg">
<path d="M3 31C2.175 31 1.469 30.7112 0.882 30.1335C0.295 29.5558 0.001 28.8605 0 28.0476V13.2857C0 12.4738 0.294 11.779 0.882 11.2013C1.47 10.6237 2.176 10.3343 3 10.3333H4.5V7.38095C4.5 5.33889 5.2315 3.59846 6.6945 2.15967C8.1575 0.720874 9.926 0.000985135 12 1.00764e-06C14.074 -0.000983119 15.843 0.718906 17.307 2.15967C18.771 3.60043 19.502 5.34086 19.5 7.38095V10.3333H21C21.825 10.3333 22.5315 10.6227 23.1195 11.2013C23.7075 11.78 24.001 12.4748 24 13.2857V28.0476C24 28.8595 23.7065 29.5548 23.1195 30.1335C22.5325 30.7121 21.826 31.001 21 31H3ZM14.1195 22.7525C14.7065 22.1739 15 21.4786 15 20.6667C15 19.8548 14.7065 19.16 14.1195 18.5823C13.5325 18.0046 12.826 17.7153 12 17.7143C11.174 17.7133 10.468 18.0026 9.882 18.5823C9.296 19.1619 9.002 19.8567 9 20.6667C8.998 21.4766 9.292 22.1719 9.882 22.7525C10.472 23.3332 11.178 23.622 12 23.619C12.822 23.6161 13.5285 23.3273 14.1195 22.7525ZM7.5 10.3333H16.5V7.38095C16.5 6.15079 16.0625 5.10516 15.1875 4.24405C14.3125 3.38294 13.25 2.95238 12 2.95238C10.75 2.95238 9.6875 3.38294 8.8125 4.24405C7.9375 5.10516 7.5 6.15079 7.5 7.38095V10.3333Z" fill="#5DCAA5"/>
</svg>
