<svg width="43" height="29" viewBox="0 0 43 29" fill="none" xmlns="http://www.w3.org/2000/svg">
<mask id="mask0_573_1127" style="mask-type:luminance" maskUnits="userSpaceOnUse" x="0" y="0" width="44" height="29">
<path d="M36.8995 3.83257L42.0007 10.0254C42.0007 10.0254 40.1133 17.1313 34.8591 22.1968C24.769 31.9227 10.0327 25.5666 4.25203 21.1766C-1.21337 16.7181 1.48005 15.7367 3.23179 16.0754L8.33297 17.0956C-0.915459 2.50525 1.62492 0.947348 4.25203 1.7921L13.4341 5.87304C19.3199 9.11433 22.1061 7.40339 23.6365 5.87304L26.6972 2.81234C31.2883 -1.2686 35.8487 2.6491 36.8995 3.83257Z" fill="white" stroke="white" stroke-width="2" stroke-linecap="round" stroke-linejoin="round"/>
<path d="M31.7984 11.9943C30.6715 11.9943 29.7579 11.0807 29.7579 9.9538C29.7579 8.82688 30.6715 7.91333 31.7984 7.91333C32.9253 7.91333 33.8389 8.82688 33.8389 9.9538C33.8389 11.0807 32.9253 11.9943 31.7984 11.9943Z" fill="black"/>
</mask>
<g mask="url(#mask0_573_1127)">
<path d="M46.0817 -10.4507H-2.88961V38.5206H46.0817V-10.4507Z" fill="#F1DCC3"/>
</g>
</svg>
