<svg width="402" height="874" viewBox="0 0 402 874" fill="none" xmlns="http://www.w3.org/2000/svg" xmlns:xlink="http://www.w3.org/1999/xlink">
<rect width="402" height="874" fill="#FCF9EE"/>
<rect width="402" height="874" fill="url(#pattern0_355_2434)" fill-opacity="0.2"/>
<defs>
<pattern id="pattern0_355_2434" patternUnits="userSpaceOnUse" patternTransform="matrix(174.092 0 0 315.363 167.649 0)" preserveAspectRatio="none" viewBox="0 0 223.195 404.312" width="1" height="1">
<use xlink:href="#pattern0_355_2434_inner" transform="translate(-223.195 0)"/>
<g id="pattern0_355_2434_inner">
<path d="M16.8165 0C18.8996 0 22.6366 0.643875 22.6366 5.77278C22.6366 10.9017 18.9375 12.8743 16.8165 12.8743C14.6955 12.8743 11.4414 10.8607 11.4414 5.77278C11.4414 0.684906 15.0174 0 16.8165 0ZM5.37509 6.43875C7.45822 6.43875 11.1952 7.07947 11.1952 12.2084C11.1952 17.3373 7.49609 19.3099 5.37509 19.3099C3.25409 19.3099 0 17.2994 0 12.2084C0 7.11734 3.57603 6.43875 5.37509 6.43875ZM36.4452 5.77278C36.4452 0.643875 32.7082 0.00315602 30.6251 0.00315602C28.826 0.00315602 25.25 0.68175 25.25 5.77278C25.25 10.8638 28.5041 12.8743 30.6251 12.8743C32.7461 12.8743 36.4452 10.9017 36.4452 5.77278ZM41.8203 6.43875C43.9034 6.43875 47.6404 7.07947 47.6404 12.2084C47.6404 17.3373 43.9413 19.3099 41.8203 19.3099C39.6993 19.3099 36.4452 17.2994 36.4452 12.2084C36.4452 7.11734 40.0213 6.43875 41.8203 6.43875ZM39.551 31.5909C39.551 22.3683 33.5857 14.3799 23.8202 14.3799C14.0548 14.3799 8.18731 22.1695 8.18731 31.5909C8.18731 39.431 17.533 39.431 23.7981 39.431H23.8202C30.7734 39.431 39.551 39.1848 39.551 31.5909ZM43.2501 44.4621C45.3332 44.4621 49.0702 45.1028 49.0702 50.2317C49.0702 55.3606 45.3711 57.3333 43.2501 57.3333C41.1291 57.3333 37.875 55.3196 37.875 50.2317C37.875 45.1438 41.451 44.4621 43.2501 44.4621ZM60.5116 43.7961C60.5116 38.6672 56.7746 38.0265 54.6915 38.0265C52.8924 38.0265 49.3164 38.7051 49.3164 43.7961C49.3164 48.8872 52.5705 50.8977 54.6915 50.8977C56.8125 50.8977 60.5116 48.925 60.5116 43.7961ZM68.5001 38.0265C70.5832 38.0265 74.3202 38.6672 74.3202 43.7961C74.3202 48.925 70.6211 50.8977 68.5001 50.8977C66.3791 50.8977 63.125 48.884 63.125 43.7961C63.125 38.7083 66.701 38.0265 68.5001 38.0265ZM85.5154 50.2317C85.5154 45.1028 81.7784 44.4621 79.6953 44.4621C77.8962 44.4621 74.3202 45.1407 74.3202 50.2317C74.3202 55.3228 77.5743 57.3333 79.6953 57.3333C81.8163 57.3333 85.5154 55.3606 85.5154 50.2317ZM61.6952 52.4032C71.4607 52.4032 77.426 60.3885 77.426 69.6143C77.426 77.2082 68.6516 77.4544 61.6952 77.4544H61.67C55.408 77.4544 46.0623 77.4544 46.0623 69.6143C46.0623 60.1928 51.9329 52.4032 61.6952 52.4032Z" fill="#D9CF88"/>
</g>
<use xlink:href="#pattern0_355_2434_inner" transform="translate(-111.598 202.156)"/>
<use xlink:href="#pattern0_355_2434_inner" transform="translate(111.598 202.156)"/>
</pattern></defs>
</svg>
