<svg width="34" height="34" viewBox="0 0 34 34" fill="none" xmlns="http://www.w3.org/2000/svg">
<path fill-rule="evenodd" clip-rule="evenodd" d="M5.73168 3.30291C5.90168 3.1329 6.13482 3.03576 6.37525 3.03576H17.0002C17.4027 3.03576 17.7888 2.87584 18.0734 2.59118C18.3581 2.30652 18.518 1.92045 18.518 1.51788C18.518 1.11531 18.3581 0.729234 18.0734 0.444577C17.7888 0.159919 17.4027 0 17.0002 0L6.37525 0C5.3286 0 4.32482 0.415789 3.58472 1.1559C2.84463 1.89601 2.42885 2.89981 2.42885 3.94649V24.9515L0.0780154 32.0018C-0.00810887 32.2599 -0.0232448 32.5365 0.0341923 32.8025C0.0916295 33.0685 0.219527 33.3142 0.404493 33.5138C0.58946 33.7134 0.824692 33.8596 1.08556 33.9371C1.34643 34.0146 1.62333 34.0206 1.88729 33.9544L11.4193 31.5719H30.0536C30.5719 31.5719 31.085 31.4698 31.5638 31.2715C32.0426 31.0732 32.4777 30.7825 32.8441 30.416C33.2106 30.0495 33.5013 29.6145 33.6996 29.1357C33.8979 28.6568 34 28.1437 34 27.6254V17.0002C34 16.5977 33.8401 16.2116 33.5554 15.9269C33.2708 15.6423 32.8847 15.4824 32.4822 15.4824C32.0796 15.4824 31.6935 15.6423 31.4089 15.9269C31.1242 16.2116 30.9643 16.5977 30.9643 17.0002V27.6254C30.9643 27.8669 30.8684 28.0986 30.6976 28.2694C30.5268 28.4402 30.2951 28.5361 30.0536 28.5361H11.2323C11.1078 28.5357 10.9838 28.5512 10.8632 28.5823L3.83255 30.3406L5.38683 25.6777C5.43953 25.5229 5.4658 25.3603 5.46454 25.1968V3.94649C5.46454 3.70363 5.56168 3.47291 5.73168 3.30291ZM26.0489 0.597437C26.7172 0.319239 27.4532 0.246433 28.163 0.388311C28.8728 0.530189 29.5242 0.880316 30.0342 1.39402H30.0366L32.6036 3.96349C32.9447 4.3021 33.2178 4.70486 33.4025 5.14856C33.5872 5.59225 33.6823 6.06812 33.6823 6.54874C33.6823 7.02936 33.5872 7.50522 33.4025 7.94892C33.2178 8.39262 32.9471 8.79538 32.606 9.13399L21.1675 20.6189C20.9925 20.7945 20.7679 20.9123 20.524 20.9564L13.2383 22.2679C13.0471 22.3023 12.8503 22.2904 12.6646 22.233C12.479 22.1756 12.3098 22.0745 12.1713 21.9381C12.0328 21.8018 11.929 21.6342 11.8688 21.4494C11.8085 21.2646 11.7935 21.0681 11.8249 20.8763L13.0392 13.4933C13.0798 13.2413 13.1987 13.0085 13.3792 12.8279L24.8687 1.39159C25.2061 1.05188 25.6071 0.782016 26.0489 0.597437Z" fill="#5DCAA5"/>
</svg>
