<svg width="26" height="26" viewBox="0 0 26 26" fill="none" xmlns="http://www.w3.org/2000/svg">
<path fill-rule="evenodd" clip-rule="evenodd" d="M4.38305 2.52575C4.51305 2.39575 4.69133 2.32146 4.87519 2.32146H13.0001C13.308 2.32146 13.6032 2.19917 13.8209 1.98149C14.0385 1.76381 14.1608 1.46858 14.1608 1.16073C14.1608 0.852886 14.0385 0.55765 13.8209 0.33997C13.6032 0.122291 13.308 0 13.0001 0L4.87519 0C4.07481 0 3.30721 0.317957 2.74126 0.883923C2.17531 1.44989 1.85736 2.2175 1.85736 3.0179V19.0806L0.0596588 24.4719C-0.0062009 24.6693 -0.0177755 24.8808 0.0261471 25.0843C0.0700696 25.2877 0.167874 25.4755 0.309319 25.6282C0.450763 25.7808 0.630646 25.8927 0.830133 25.9519C1.02962 26.0112 1.24137 26.0157 1.44322 25.9651L8.73244 24.1432H22.9822C23.3785 24.1432 23.7709 24.0651 24.137 23.9135C24.5032 23.7618 24.8359 23.5395 25.1161 23.2593C25.3963 22.979 25.6186 22.6464 25.7703 22.2802C25.9219 21.9141 26 21.5216 26 21.1253V13.0002C26 12.6923 25.8777 12.3971 25.66 12.1794C25.4424 11.9618 25.1471 11.8395 24.8393 11.8395C24.5315 11.8395 24.2362 11.9618 24.0186 12.1794C23.8009 12.3971 23.6786 12.6923 23.6786 13.0002V21.1253C23.6786 21.31 23.6052 21.4872 23.4746 21.6178C23.344 21.7484 23.1669 21.8217 22.9822 21.8217H8.58944C8.49422 21.8214 8.39936 21.8333 8.30716 21.857L2.93078 23.2016L4.11934 19.6359C4.15964 19.5175 4.17973 19.3932 4.17876 19.2681V3.0179C4.17876 2.83218 4.25305 2.65575 4.38305 2.52575ZM19.9198 0.456864C20.4308 0.244124 20.9936 0.188449 21.5364 0.296944C22.0792 0.405438 22.5773 0.673183 22.9673 1.06602H22.9692L24.9322 3.0309C25.193 3.28984 25.4018 3.59783 25.5431 3.93713C25.6844 4.27643 25.7571 4.64033 25.7571 5.00786C25.7571 5.37539 25.6844 5.73929 25.5431 6.07859C25.4018 6.41789 25.1948 6.72588 24.934 6.98482L16.1869 15.7674C16.0531 15.9016 15.8814 15.9917 15.6948 16.0255L10.1234 17.0284C9.97716 17.0547 9.82671 17.0456 9.68472 17.0017C9.54273 16.9578 9.41335 16.8805 9.30745 16.7762C9.20154 16.6719 9.12221 16.5438 9.07612 16.4025C9.03003 16.2612 9.01853 16.1109 9.04258 15.9642L9.97114 10.3184C10.0022 10.1257 10.0931 9.94765 10.2311 9.80957L19.0172 1.06416C19.2752 0.804378 19.5819 0.598012 19.9198 0.456864Z" fill="white"/>
</svg>
