<svg width="12" height="12" viewBox="0 0 12 12" fill="none" xmlns="http://www.w3.org/2000/svg">
<path d="M6.93047 1.78932L7.39393 1.32584C7.76261 0.957136 8.26266 0.75 8.78406 0.75C9.30546 0.75 9.8055 0.957136 10.1742 1.32584C10.5429 1.69454 10.75 2.19461 10.75 2.71604C10.75 3.23747 10.5429 3.73754 10.1742 4.10624L9.71073 4.56972L7.08095 7.20013L5.53059 8.74957L5.45059 8.83007L5.44443 8.83623C5.15956 9.12062 5.016 9.26394 4.85815 9.38705C4.67042 9.53335 4.46743 9.65891 4.2527 9.76154C4.07071 9.84803 3.87723 9.91253 3.48976 10.0415L1.8494 10.5885L1.44844 10.7225C1.35497 10.7538 1.25462 10.7585 1.15866 10.7359C1.06269 10.7134 0.974926 10.6645 0.90522 10.5948C0.835514 10.5251 0.786632 10.4373 0.764068 10.3413C0.741505 10.2454 0.746155 10.145 0.777495 10.0515L0.911484 9.65054L1.8494 10.5885L3.48976 10.0415C3.87723 9.91253 4.07071 9.84803 4.2527 9.76154C4.46743 9.65891 4.67042 9.53335 4.85815 9.38705C5.016 9.26394 5.15956 9.12062 5.44443 8.83623L5.45059 8.83007L5.53059 8.74957L7.08095 7.20013L9.71073 4.56972C9.71073 4.56972 8.72631 4.51173 7.85739 3.64276C6.98846 2.77429 6.93047 1.78932 6.93047 1.78932Z" fill="#3F3F3F"/>
<path d="M5.75057 2.96928L6.93047 1.78932L7.39393 1.32584C7.76261 0.957136 8.26266 0.75 8.78406 0.75C9.30546 0.75 9.8055 0.957136 10.1742 1.32584C10.5429 1.69454 10.75 2.19461 10.75 2.71604C10.75 3.23747 10.5429 3.73754 10.1742 4.10624L9.71073 4.56972M6.93047 1.78932C6.93047 1.78932 6.98846 2.77429 7.85739 3.64276C8.72631 4.51173 9.71073 4.56972 9.71073 4.56972M9.71073 4.56972L7.08095 7.20013L5.53059 8.74957L5.45059 8.83007C5.16162 9.11856 5.01713 9.26306 4.85815 9.38705C4.67042 9.53335 4.46743 9.65891 4.2527 9.76154C4.07071 9.84803 3.87723 9.91253 3.48976 10.0415L1.8494 10.5885M1.8494 10.5885L1.44844 10.7225C1.35497 10.7538 1.25462 10.7585 1.15866 10.7359C1.06269 10.7134 0.974926 10.6645 0.90522 10.5948C0.835514 10.5251 0.786632 10.4373 0.764068 10.3413C0.741505 10.2454 0.746155 10.145 0.777495 10.0515L0.911484 9.65054M1.8494 10.5885L0.911484 9.65054M0.911484 9.65054L1.45844 8.0101C1.58743 7.62261 1.65192 7.42912 1.73841 7.24713C1.8414 7.03147 1.96623 6.82964 2.11288 6.64165C2.23687 6.48265 2.38136 6.33816 2.66983 6.04967L4.00072 4.71922" stroke="#3F3F3F" stroke-width="1.5" stroke-linecap="round"/>
</svg>
