<svg width="27" height="31" viewBox="0 0 27 31" fill="none" xmlns="http://www.w3.org/2000/svg">
<path d="M3.375 31C2.44687 31 1.65262 30.6967 0.99225 30.0901C0.331875 29.4836 0.001125 28.7535 0 27.9V3.1C0 2.2475 0.33075 1.51797 0.99225 0.9114C1.65375 0.304833 2.448 0.00103333 3.375 0H23.625C24.5531 0 25.3479 0.3038 26.0094 0.9114C26.6709 1.519 27.0011 2.24853 27 3.1V27.9C27 28.7525 26.6698 29.4825 26.0094 30.0901C25.3491 30.6977 24.5542 31.001 23.625 31H3.375ZM11.8125 13.95L16.0312 11.625L20.25 13.95V3.1H11.8125V13.95Z" fill="#B7B7B7"/>
</svg>
