<svg width="17" height="20" viewBox="0 0 17 20" fill="none" xmlns="http://www.w3.org/2000/svg">
<path d="M3.25022 6.50086C2.73247 6.50082 2.22219 6.62449 1.7619 6.86156C1.3016 7.09863 0.90461 7.44224 0.603979 7.86378C0.303348 8.28532 0.10778 8.77258 0.0335632 9.28499C-0.0406539 9.7974 0.00862697 10.3201 0.177302 10.8096C0.345977 11.2992 0.629165 11.7413 1.00328 12.0992C1.3774 12.4571 1.83161 12.7205 2.32811 12.8674C2.8246 13.0142 3.34899 13.0404 3.85762 12.9436C4.36625 12.8468 4.84439 12.6298 5.25222 12.3109L5.32022 12.3649L10.0502 15.6769C9.90981 16.4596 10.0613 17.2667 10.4759 17.9453C10.8905 18.6239 11.5396 19.1269 12.3002 19.3591C13.0608 19.5913 13.8801 19.5366 14.6031 19.2053C15.326 18.874 15.9024 18.2891 16.2232 17.5614C16.5439 16.8337 16.5866 16.0136 16.3434 15.2565C16.1001 14.4994 15.5877 13.8577 14.9031 13.453C14.2185 13.0483 13.4093 12.9087 12.6287 13.0605C11.8481 13.2123 11.1502 13.6451 10.6672 14.2769L6.18822 11.1419C6.38822 10.7209 6.50022 10.2489 6.50022 9.75086C6.50022 9.25286 6.38822 8.78086 6.18822 8.35986L10.6682 5.22386C11.1512 5.85564 11.8491 6.2884 12.6297 6.44023C13.4103 6.59205 14.2195 6.45239 14.9041 6.04768C15.5887 5.64298 16.1011 5.00133 16.3444 4.2442C16.5876 3.48708 16.5449 2.66703 16.2242 1.93932C15.9034 1.21161 15.327 0.626743 14.6041 0.295449C13.8811 -0.0358461 13.0618 -0.0905729 12.3012 0.141629C11.5406 0.373831 10.8915 0.876845 10.4769 1.55544C10.0623 2.23403 9.91081 3.0411 10.0512 3.82386L5.32022 7.13786L5.25222 7.19086C4.68101 6.74312 3.976 6.50014 3.25022 6.50086Z" fill="#9A6524"/>
</svg>
