<svg width="23" height="23" viewBox="0 0 23 23" fill="none" xmlns="http://www.w3.org/2000/svg">
<path d="M13.6242 1.09297e-05C14.2649 1.09297e-05 14.7856 0.520794 14.7856 1.16151V21.8384C14.7857 22.0682 14.7176 22.2928 14.59 22.4838C14.4624 22.6749 14.2809 22.8238 14.0687 22.9117C13.8564 22.9997 13.6228 23.0227 13.3975 22.9778C13.1721 22.933 12.9652 22.8223 12.8027 22.6598L6.5714 16.4285V6.57141L12.8027 0.340081C12.9102 0.23172 13.0382 0.145844 13.1792 0.0874579C13.3203 0.0290722 13.4715 -0.000654512 13.6242 1.09297e-05ZM18.0713 2.96371C19.5697 3.82889 20.8139 5.07321 21.679 6.57163C22.544 8.07004 22.9995 9.76976 22.9995 11.5C22.9995 13.2302 22.544 14.9299 21.679 16.4283C20.8139 17.9267 19.5697 19.171 18.0713 20.0362L17.2499 18.6135C18.4985 17.8925 19.5354 16.8556 20.2563 15.6069C20.9772 14.3582 21.3567 12.9418 21.3567 11.5C21.3567 10.0581 20.9772 8.6417 20.2563 7.39302C19.5354 6.14434 18.4985 5.1074 17.2499 4.38642L18.0713 2.96371Z" fill="#5DCAA5"/>
<path d="M16.4285 5.80884C17.4274 6.38562 18.2569 7.21517 18.8336 8.21412C19.4103 9.21306 19.7139 10.3462 19.7139 11.4997C19.7139 12.6531 19.4103 13.7863 18.8336 14.7852C18.2569 15.7842 17.4274 16.6137 16.4285 17.1905L15.6071 15.7678C16.3562 15.3352 16.9784 14.713 17.4109 13.9638C17.8434 13.2146 18.0711 12.3648 18.0711 11.4997C18.0711 10.6346 17.8434 9.78471 17.4109 9.0355C16.9784 8.2863 16.3562 7.66413 15.6071 7.23155L16.4285 5.80884ZM4.92855 16.4282H3.2857C2.41428 16.4282 1.57855 16.082 0.962359 15.4659C0.346171 14.8497 0 14.0139 0 13.1425V9.85682C0 8.9854 0.346171 8.14967 0.962359 7.53348C1.57855 6.91729 2.41428 6.57112 3.2857 6.57112H4.92855V16.4282Z" fill="#5DCAA5"/>
</svg>
