<svg width="75" height="75" viewBox="0 0 75 75" fill="none" xmlns="http://www.w3.org/2000/svg">
<path fill-rule="evenodd" clip-rule="evenodd" d="M13.6364 0C10.0198 0 6.55131 1.43668 3.994 3.994C1.43668 6.55131 0 10.0198 0 13.6364V61.3636C0 64.9802 1.43668 68.4487 3.994 71.006C6.55131 73.5633 10.0198 75 13.6364 75H61.3636C64.9802 75 68.4487 73.5633 71.006 71.006C73.5633 68.4487 75 64.9802 75 61.3636V13.6364C75 10.0198 73.5633 6.55131 71.006 3.994C68.4487 1.43668 64.9802 0 61.3636 0H13.6364ZM12.4977 11.9318C12.1245 12.0705 11.7889 12.2944 11.5175 12.5857C11.2462 12.8771 11.0466 13.2277 10.9347 13.6098C10.8228 13.9919 10.8016 14.3948 10.8729 14.7865C10.9443 15.1782 11.1061 15.5478 11.3455 15.8659L30.4841 41.2636L10.3193 62.8943L10.1693 63.0682H17.1477L33.6136 45.4125L46.2682 62.2125C46.5618 62.6014 46.9604 62.8983 47.417 63.0682H62.492C62.8647 62.9288 63.1996 62.7043 63.4702 62.4127C63.7409 62.121 63.9397 61.7703 64.0509 61.3883C64.1621 61.0063 64.1827 60.6036 64.1109 60.2123C64.0391 59.8209 63.877 59.4518 63.6375 59.1341L44.4989 33.7364L64.8307 11.9318H57.842L41.3761 29.5909L28.7148 12.7909C28.4216 12.4008 28.023 12.1027 27.5659 11.9318H12.4977ZM49.5886 58.1182L18.5148 16.8818H25.3977L56.4682 58.1148L49.5886 58.1182Z" fill="#3F3F3F"/>
</svg>
