<svg width="24" height="31" viewBox="0 0 24 31" fill="none" xmlns="http://www.w3.org/2000/svg">
<path d="M21 10.3333H7.5V7.38095C7.5 6.15079 7.9375 5.10516 8.8125 4.24405C9.6875 3.38294 10.75 2.95238 12 2.95238C13.25 2.95238 14.3125 3.38294 15.1875 4.24405C16.0625 5.10516 16.5 6.15079 16.5 7.38095H19.5C19.5 5.33889 18.7685 3.59846 17.3055 2.15967C15.8425 0.720874 14.074 0.000985135 12 1.00764e-06C9.926 -0.000983119 8.157 0.718906 6.693 2.15967C5.229 3.60043 4.498 5.34086 4.5 7.38095V10.3333H3C2.175 10.3333 1.4685 10.6227 0.880501 11.2013C0.292501 11.78 -0.000997543 12.4748 1.90735e-06 13.2857V28.0476C1.90735e-06 28.8595 0.293501 29.5548 0.880501 30.1335C1.4675 30.7121 2.174 31.001 3 31H21C21.825 31 22.531 30.7112 23.118 30.1335C23.705 29.5558 23.999 28.8605 24 28.0476V13.2857C24 12.4738 23.706 11.779 23.118 11.2013C22.53 10.6237 21.824 10.3343 21 10.3333ZM9.8805 22.7525C9.2935 22.1739 9 21.4786 9 20.6667C9 19.8548 9.2935 19.16 9.8805 18.5823C10.4675 18.0046 11.174 17.7153 12 17.7143C12.826 17.7133 13.532 18.0026 14.118 18.5823C14.704 19.1619 14.998 19.8567 15 20.6667C15.002 21.4766 14.708 22.1719 14.118 22.7525C13.528 23.3332 12.822 23.622 12 23.619C11.178 23.6161 10.4715 23.3273 9.8805 22.7525Z" fill="#5DCAA5"/>
</svg>
