<svg width="43" height="32" viewBox="0 0 43 32" fill="none" xmlns="http://www.w3.org/2000/svg">
<path d="M14.3333 32C13.3479 32 12.5046 31.6521 11.8035 30.9564C11.1024 30.2607 10.7512 29.4234 10.75 28.4444V3.55556C10.75 2.57778 11.1012 1.74104 11.8035 1.04533C12.5058 0.34963 13.3491 0.00118519 14.3333 0H28.6667C29.6521 0 30.496 0.348445 31.1983 1.04533C31.9006 1.74222 32.2512 2.57896 32.25 3.55556V28.4444C32.25 29.4222 31.8994 30.2596 31.1983 30.9564C30.4972 31.6533 29.6533 32.0012 28.6667 32H14.3333ZM22.7775 8.37689C23.1203 8.03674 23.2917 7.61481 23.2917 7.11111C23.2917 6.60741 23.1197 6.18548 22.7757 5.84533C22.4317 5.50518 22.0064 5.33452 21.5 5.33333C20.9936 5.33215 20.5683 5.50281 20.2243 5.84533C19.8803 6.18785 19.7083 6.60978 19.7083 7.11111C19.7083 7.61244 19.8803 8.03496 20.2243 8.37866C20.5683 8.72237 20.9936 8.89244 21.5 8.88889C22.0064 8.88533 22.4323 8.71467 22.7775 8.37689ZM0 21.3333V10.6667H3.58333V21.3333H0ZM5.375 24.8889V7.11111H8.95833V24.8889H5.375ZM39.4167 21.3333V10.6667H43V21.3333H39.4167ZM34.0417 24.8889V7.11111H37.625V24.8889H34.0417Z" fill="#F1DCC3"/>
</svg>
